REM GENRE "Avant-Garde Doom Metal"
REM DATE 1995
REM DISCID 7D0C9609
REM COMMENT "ExactAudioCopy v1.0b3"
PERFORMER "Beyond Dawn"
TITLE "Pity Love"
FILE "Beyond Dawn - Pity Love.flac" WAVE
  TRACK 01 AUDIO
    TITLE "When Beauty Dies"
    PERFORMER "Beyond Dawn"
    INDEX 00 00:00:00
    INDEX 01 00:00:32
  TRACK 02 AUDIO
    TITLE "The Penance"
    PERFORMER "Beyond Dawn"
    INDEX 01 04:56:20
  TRACK 03 AUDIO
    TITLE "(Never a) Bygone"
    PERFORMER "Beyond Dawn"
    INDEX 00 08:08:62
    INDEX 01 08:10:22
  TRACK 04 AUDIO
    TITLE "Teardance"
    PERFORMER "Beyond Dawn"
    INDEX 00 14:28:07
    INDEX 01 14:29:62
  TRACK 05 AUDIO
    TITLE "As the Evening Falters, the Dogs Howl"
    PERFORMER "Beyond Dawn"
    INDEX 00 21:06:12
    INDEX 01 21:08:67
  TRACK 06 AUDIO
    TITLE "Embers"
    PERFORMER "Beyond Dawn"
    INDEX 00 25:59:22
    INDEX 01 26:00:47
  TRACK 07 AUDIO
    TITLE "Storm"
    PERFORMER "Beyond Dawn"
    INDEX 01 34:31:27
  TRACK 08 AUDIO
    TITLE "Ripe As the Night"
    PERFORMER "Beyond Dawn"
    INDEX 00 39:46:20
    INDEX 01 39:47:02
  TRACK 09 AUDIO
    TITLE "Daughter Sunday"
    PERFORMER "Beyond Dawn"
    INDEX 00 44:10:12
    INDEX 01 44:10:62
